<mxfile host="app.diagrams.net" modified="2023-06-29T02:39:04.602Z" agent="Mozilla/5.0 (Windows NT 10.0; Win64; x64) AppleWebKit/537.36 (KHTML, like Gecko) Chrome/114.0.0.0 Safari/537.36 Edg/114.0.1823.58" etag="h9G-ilT39qGtJUKkFAou" version="21.5.2" type="device">
  <diagram name="Page-1" id="HR97a0r6DX2Q4GomT__x">
    <mxGraphModel dx="1086" dy="577" grid="1" gridSize="10" guides="1" tooltips="1" connect="1" arrows="1" fold="1" page="1" pageScale="1" pageWidth="850" pageHeight="1100" math="0" shadow="0">
      <root>
        <mxCell id="0" />
        <mxCell id="1" parent="0" />
        <mxCell id="ev84bSYayLl21wjOV6-V-1" value="&lt;span style=&quot;white-space: pre;&quot;&gt;&#x9;&lt;/span&gt;&lt;span style=&quot;white-space: pre;&quot;&gt;&#x9;&lt;/span&gt;GPIO18&lt;span style=&quot;white-space: pre;&quot;&gt;&#x9;&lt;/span&gt;&lt;span style=&quot;white-space: pre;&quot;&gt;&#x9;&lt;/span&gt;&lt;span style=&quot;white-space: pre;&quot;&gt;&#x9;&lt;/span&gt;&lt;span style=&quot;white-space: pre;&quot;&gt;&#x9;&lt;/span&gt;GPIO17&lt;br&gt;&lt;br&gt;&lt;br&gt;&lt;br&gt;&lt;br&gt;&lt;br&gt;5V&lt;span style=&quot;white-space: pre;&quot;&gt;&#x9;&lt;/span&gt;&lt;span style=&quot;white-space: pre;&quot;&gt;&#x9;&lt;/span&gt;&lt;span style=&quot;white-space: pre;&quot;&gt;&#x9;&lt;/span&gt;&lt;span style=&quot;white-space: pre;&quot;&gt;&#x9;&lt;/span&gt;&lt;span style=&quot;white-space: pre;&quot;&gt;&#x9;&lt;/span&gt;GPIO10&lt;span style=&quot;white-space: pre;&quot;&gt;&#x9;&lt;/span&gt;&lt;span style=&quot;white-space: pre;&quot;&gt;&#x9;&lt;/span&gt;&lt;span style=&quot;white-space: pre;&quot;&gt;&#x9;&lt;/span&gt;&lt;span style=&quot;white-space: pre;&quot;&gt;&#x9;&lt;/span&gt;GND&lt;br&gt;&lt;br&gt;&lt;br&gt;&lt;br&gt;&lt;br&gt;&lt;br&gt;GPIO4&lt;span style=&quot;white-space: pre;&quot;&gt;&#x9;&lt;/span&gt;GPIO5&lt;span style=&quot;white-space: pre;&quot;&gt;&#x9;&lt;span style=&quot;white-space: pre;&quot;&gt;&#x9;&lt;/span&gt;&lt;/span&gt;GPIO17&lt;span style=&quot;white-space: pre;&quot;&gt;&#x9;&amp;nbsp;&lt;/span&gt;&amp;nbsp;&amp;nbsp;GPIO6&lt;span style=&quot;white-space: pre;&quot;&gt;&lt;span style=&quot;white-space: pre;&quot;&gt;&#x9;&lt;/span&gt;         &lt;/span&gt;GP12&lt;span style=&quot;white-space: pre;&quot;&gt;&#x9;&lt;/span&gt;&lt;br&gt;&lt;div style=&quot;text-align: center;&quot;&gt;&lt;/div&gt;" style="rounded=0;whiteSpace=wrap;html=1;align=left;" vertex="1" parent="1">
          <mxGeometry x="240" y="340" width="310" height="190" as="geometry" />
        </mxCell>
        <mxCell id="ev84bSYayLl21wjOV6-V-6" value="&lt;br&gt;&lt;br&gt;&lt;br&gt;&lt;br&gt;&lt;br&gt;&lt;span style=&quot;white-space: pre;&quot;&gt;&#x9;&lt;/span&gt;&lt;span style=&quot;white-space: pre;&quot;&gt;&#x9;&lt;/span&gt;&lt;span style=&quot;white-space: pre;&quot;&gt;&#x9;&lt;/span&gt;&lt;span style=&quot;white-space: pre;&quot;&gt;&#x9;&lt;/span&gt;&lt;span style=&quot;white-space: pre;&quot;&gt;&#x9;&lt;/span&gt;HC-SR04&lt;br&gt;&lt;br&gt;&lt;br&gt;&lt;br&gt;&lt;br&gt;VCC&lt;span style=&quot;white-space: pre;&quot;&gt;&#x9;&lt;/span&gt;&lt;span style=&quot;white-space: pre;&quot;&gt;&#x9;&lt;/span&gt;TRIG&lt;span style=&quot;white-space: pre;&quot;&gt;&#x9;&lt;/span&gt;&lt;span style=&quot;white-space: pre;&quot;&gt;&#x9;&lt;/span&gt;ECHO&lt;span style=&quot;white-space: pre;&quot;&gt;&#x9;&lt;/span&gt;&lt;span style=&quot;white-space: pre;&quot;&gt;&#x9;&lt;/span&gt;GND" style="rounded=0;whiteSpace=wrap;html=1;align=left;" vertex="1" parent="1">
          <mxGeometry x="250" y="20" width="300" height="160" as="geometry" />
        </mxCell>
        <mxCell id="ev84bSYayLl21wjOV6-V-7" value="&lt;span style=&quot;background-color: initial;&quot;&gt;+&amp;nbsp; &amp;nbsp; &amp;nbsp; &amp;nbsp; &amp;nbsp;-&lt;/span&gt;&lt;span style=&quot;background-color: initial; white-space: pre;&quot;&gt;&#x9;&lt;/span&gt;&lt;span style=&quot;background-color: initial;&quot;&gt;&amp;nbsp; &amp;nbsp;&lt;/span&gt;&lt;span style=&quot;background-color: initial;&quot;&gt;INT1&lt;/span&gt;&lt;span style=&quot;background-color: initial; white-space: pre;&quot;&gt;&#x9;&lt;/span&gt;&lt;span style=&quot;background-color: initial;&quot;&gt;IN2&lt;/span&gt;&lt;span style=&quot;background-color: initial; white-space: pre;&quot;&gt;&#x9;&lt;/span&gt;&lt;span style=&quot;background-color: initial; white-space: pre;&quot;&gt;&#x9;&lt;/span&gt;&lt;span style=&quot;background-color: initial;&quot;&gt;INT3&lt;/span&gt;&lt;span style=&quot;background-color: initial; white-space: pre;&quot;&gt;&#x9;&lt;/span&gt;&lt;span style=&quot;background-color: initial;&quot;&gt;INT4&lt;/span&gt;&lt;br&gt;&lt;br&gt;&lt;br&gt;&lt;br&gt;&lt;br&gt;&lt;span style=&quot;white-space: pre;&quot;&gt;&#x9;&lt;/span&gt;&lt;span style=&quot;white-space: pre;&quot;&gt;&#x9;&lt;/span&gt;&lt;span style=&quot;white-space: pre;&quot;&gt;&#x9;&lt;/span&gt;STEP MOTOR&lt;br&gt;&lt;br&gt;" style="rounded=0;whiteSpace=wrap;html=1;align=left;" vertex="1" parent="1">
          <mxGeometry x="230" y="710" width="305" height="130" as="geometry" />
        </mxCell>
        <mxCell id="ev84bSYayLl21wjOV6-V-8" value="" style="endArrow=none;html=1;rounded=0;entryX=0;entryY=0.5;entryDx=0;entryDy=0;exitX=0.042;exitY=0.997;exitDx=0;exitDy=0;exitPerimeter=0;" edge="1" parent="1" source="ev84bSYayLl21wjOV6-V-6" target="ev84bSYayLl21wjOV6-V-1">
          <mxGeometry width="50" height="50" relative="1" as="geometry">
            <mxPoint x="190" y="430" as="sourcePoint" />
            <mxPoint x="230" y="450" as="targetPoint" />
            <Array as="points">
              <mxPoint x="130" y="180" />
              <mxPoint x="130" y="280" />
              <mxPoint x="130" y="435" />
            </Array>
          </mxGeometry>
        </mxCell>
        <mxCell id="ev84bSYayLl21wjOV6-V-9" value="" style="endArrow=none;html=1;rounded=0;entryX=0.328;entryY=1.027;entryDx=0;entryDy=0;entryPerimeter=0;exitX=0.25;exitY=0;exitDx=0;exitDy=0;" edge="1" parent="1" source="ev84bSYayLl21wjOV6-V-1" target="ev84bSYayLl21wjOV6-V-6">
          <mxGeometry width="50" height="50" relative="1" as="geometry">
            <mxPoint x="250" y="440" as="sourcePoint" />
            <mxPoint x="300" y="390" as="targetPoint" />
            <Array as="points">
              <mxPoint x="318" y="260" />
              <mxPoint x="350" y="260" />
            </Array>
          </mxGeometry>
        </mxCell>
        <mxCell id="ev84bSYayLl21wjOV6-V-15" value="" style="group" vertex="1" connectable="0" parent="1">
          <mxGeometry x="450" y="220" width="20" as="geometry" />
        </mxCell>
        <mxCell id="ev84bSYayLl21wjOV6-V-12" value="" style="edgeStyle=isometricEdgeStyle;endArrow=none;html=1;rounded=0;elbow=horizontal;" edge="1" parent="ev84bSYayLl21wjOV6-V-15">
          <mxGeometry width="50" height="100" relative="1" as="geometry">
            <mxPoint x="6.666666666666666" as="sourcePoint" />
            <mxPoint x="13.333333333333332" as="targetPoint" />
          </mxGeometry>
        </mxCell>
        <mxCell id="ev84bSYayLl21wjOV6-V-13" value="" style="edgeStyle=isometricEdgeStyle;endArrow=none;html=1;rounded=0;elbow=horizontal;" edge="1" parent="ev84bSYayLl21wjOV6-V-15">
          <mxGeometry width="50" height="100" relative="1" as="geometry">
            <mxPoint x="13.333333333333332" as="sourcePoint" />
            <mxPoint x="20" as="targetPoint" />
          </mxGeometry>
        </mxCell>
        <mxCell id="ev84bSYayLl21wjOV6-V-14" value="" style="edgeStyle=isometricEdgeStyle;endArrow=none;html=1;rounded=0;elbow=horizontal;" edge="1" parent="ev84bSYayLl21wjOV6-V-15">
          <mxGeometry width="50" height="100" relative="1" as="geometry">
            <mxPoint as="sourcePoint" />
            <mxPoint x="6.666666666666666" as="targetPoint" />
          </mxGeometry>
        </mxCell>
        <mxCell id="ev84bSYayLl21wjOV6-V-17" value="" style="endArrow=none;html=1;rounded=0;entryX=0.598;entryY=1.002;entryDx=0;entryDy=0;entryPerimeter=0;" edge="1" parent="1" target="ev84bSYayLl21wjOV6-V-6">
          <mxGeometry width="50" height="50" relative="1" as="geometry">
            <mxPoint x="450" y="220" as="sourcePoint" />
            <mxPoint x="470" y="210" as="targetPoint" />
            <Array as="points">
              <mxPoint x="430" y="220" />
            </Array>
          </mxGeometry>
        </mxCell>
        <mxCell id="ev84bSYayLl21wjOV6-V-18" value="" style="endArrow=none;html=1;rounded=0;" edge="1" parent="1">
          <mxGeometry width="50" height="50" relative="1" as="geometry">
            <mxPoint x="480" y="220" as="sourcePoint" />
            <mxPoint x="470" y="220" as="targetPoint" />
          </mxGeometry>
        </mxCell>
        <mxCell id="ev84bSYayLl21wjOV6-V-23" value="" style="group" vertex="1" connectable="0" parent="1">
          <mxGeometry x="480" y="220" width="20" as="geometry" />
        </mxCell>
        <mxCell id="ev84bSYayLl21wjOV6-V-24" value="" style="edgeStyle=isometricEdgeStyle;endArrow=none;html=1;rounded=0;elbow=horizontal;" edge="1" parent="ev84bSYayLl21wjOV6-V-23">
          <mxGeometry width="50" height="100" relative="1" as="geometry">
            <mxPoint x="6.666666666666666" as="sourcePoint" />
            <mxPoint x="13.333333333333332" as="targetPoint" />
          </mxGeometry>
        </mxCell>
        <mxCell id="ev84bSYayLl21wjOV6-V-25" value="" style="edgeStyle=isometricEdgeStyle;endArrow=none;html=1;rounded=0;elbow=horizontal;" edge="1" parent="ev84bSYayLl21wjOV6-V-23">
          <mxGeometry width="50" height="100" relative="1" as="geometry">
            <mxPoint x="13.333333333333332" as="sourcePoint" />
            <mxPoint x="20" as="targetPoint" />
          </mxGeometry>
        </mxCell>
        <mxCell id="ev84bSYayLl21wjOV6-V-26" value="" style="edgeStyle=isometricEdgeStyle;endArrow=none;html=1;rounded=0;elbow=horizontal;" edge="1" parent="ev84bSYayLl21wjOV6-V-23">
          <mxGeometry width="50" height="100" relative="1" as="geometry">
            <mxPoint as="sourcePoint" />
            <mxPoint x="6.666666666666666" as="targetPoint" />
          </mxGeometry>
        </mxCell>
        <mxCell id="ev84bSYayLl21wjOV6-V-27" value="" style="endArrow=none;html=1;rounded=0;exitX=0.686;exitY=-0.004;exitDx=0;exitDy=0;exitPerimeter=0;" edge="1" parent="1">
          <mxGeometry width="50" height="50" relative="1" as="geometry">
            <mxPoint x="446.3300000000001" y="339.24" as="sourcePoint" />
            <mxPoint x="473.67" y="220" as="targetPoint" />
            <Array as="points">
              <mxPoint x="446.67" y="260" />
              <mxPoint x="473.67" y="260" />
            </Array>
          </mxGeometry>
        </mxCell>
        <mxCell id="ev84bSYayLl21wjOV6-V-28" value="" style="endArrow=none;html=1;rounded=0;entryX=0.837;entryY=1.008;entryDx=0;entryDy=0;entryPerimeter=0;exitX=1;exitY=0.474;exitDx=0;exitDy=0;exitPerimeter=0;" edge="1" parent="1" source="ev84bSYayLl21wjOV6-V-1" target="ev84bSYayLl21wjOV6-V-6">
          <mxGeometry width="50" height="50" relative="1" as="geometry">
            <mxPoint x="410" y="340" as="sourcePoint" />
            <mxPoint x="460" y="290" as="targetPoint" />
            <Array as="points">
              <mxPoint x="630" y="430" />
              <mxPoint x="630" y="250" />
              <mxPoint x="500" y="250" />
            </Array>
          </mxGeometry>
        </mxCell>
        <mxCell id="ev84bSYayLl21wjOV6-V-30" value="" style="endArrow=none;html=1;rounded=0;exitX=0;exitY=0;exitDx=0;exitDy=0;" edge="1" parent="1">
          <mxGeometry width="50" height="50" relative="1" as="geometry">
            <mxPoint x="240" y="710" as="sourcePoint" />
            <mxPoint x="180" y="440" as="targetPoint" />
            <Array as="points">
              <mxPoint x="240" y="550" />
              <mxPoint x="180" y="550" />
            </Array>
          </mxGeometry>
        </mxCell>
        <mxCell id="ev84bSYayLl21wjOV6-V-31" value="" style="endArrow=none;html=1;rounded=0;exitX=0.143;exitY=-0.022;exitDx=0;exitDy=0;exitPerimeter=0;" edge="1" parent="1" source="ev84bSYayLl21wjOV6-V-7">
          <mxGeometry width="50" height="50" relative="1" as="geometry">
            <mxPoint x="350" y="660" as="sourcePoint" />
            <mxPoint x="600" y="430" as="targetPoint" />
            <Array as="points">
              <mxPoint x="274" y="660" />
              <mxPoint x="600" y="660" />
            </Array>
          </mxGeometry>
        </mxCell>
        <mxCell id="ev84bSYayLl21wjOV6-V-32" value="" style="endArrow=none;html=1;rounded=0;entryX=0.051;entryY=0.997;entryDx=0;entryDy=0;entryPerimeter=0;exitX=0.25;exitY=0;exitDx=0;exitDy=0;" edge="1" parent="1" source="ev84bSYayLl21wjOV6-V-7" target="ev84bSYayLl21wjOV6-V-1">
          <mxGeometry width="50" height="50" relative="1" as="geometry">
            <mxPoint x="350" y="660" as="sourcePoint" />
            <mxPoint x="400" y="610" as="targetPoint" />
            <Array as="points">
              <mxPoint x="306" y="620" />
              <mxPoint x="256" y="620" />
            </Array>
          </mxGeometry>
        </mxCell>
        <mxCell id="ev84bSYayLl21wjOV6-V-33" value="" style="endArrow=none;html=1;rounded=0;entryX=0.25;entryY=1;entryDx=0;entryDy=0;exitX=0.25;exitY=0;exitDx=0;exitDy=0;" edge="1" parent="1" target="ev84bSYayLl21wjOV6-V-1">
          <mxGeometry width="50" height="50" relative="1" as="geometry">
            <mxPoint x="350" y="710" as="sourcePoint" />
            <mxPoint x="300" y="529" as="targetPoint" />
            <Array as="points">
              <mxPoint x="350" y="570" />
              <mxPoint x="318" y="570" />
            </Array>
          </mxGeometry>
        </mxCell>
        <mxCell id="ev84bSYayLl21wjOV6-V-34" value="" style="endArrow=none;html=1;rounded=0;entryX=0.708;entryY=1.001;entryDx=0;entryDy=0;entryPerimeter=0;exitX=0.575;exitY=-0.022;exitDx=0;exitDy=0;exitPerimeter=0;" edge="1" parent="1" source="ev84bSYayLl21wjOV6-V-7" target="ev84bSYayLl21wjOV6-V-1">
          <mxGeometry width="50" height="50" relative="1" as="geometry">
            <mxPoint x="350" y="660" as="sourcePoint" />
            <mxPoint x="400" y="610" as="targetPoint" />
            <Array as="points">
              <mxPoint x="405" y="610" />
              <mxPoint x="460" y="610" />
            </Array>
          </mxGeometry>
        </mxCell>
        <mxCell id="ev84bSYayLl21wjOV6-V-35" value="" style="endArrow=none;html=1;rounded=0;entryX=0.923;entryY=1.011;entryDx=0;entryDy=0;entryPerimeter=0;exitX=0.718;exitY=-0.035;exitDx=0;exitDy=0;exitPerimeter=0;" edge="1" parent="1" source="ev84bSYayLl21wjOV6-V-7" target="ev84bSYayLl21wjOV6-V-1">
          <mxGeometry width="50" height="50" relative="1" as="geometry">
            <mxPoint x="350" y="660" as="sourcePoint" />
            <mxPoint x="400" y="610" as="targetPoint" />
            <Array as="points">
              <mxPoint x="450" y="620" />
              <mxPoint x="526" y="620" />
            </Array>
          </mxGeometry>
        </mxCell>
        <mxCell id="ev84bSYayLl21wjOV6-V-36" value="" style="endArrow=none;html=1;rounded=0;entryX=0.524;entryY=1.006;entryDx=0;entryDy=0;entryPerimeter=0;" edge="1" parent="1" target="ev84bSYayLl21wjOV6-V-1">
          <mxGeometry width="50" height="50" relative="1" as="geometry">
            <mxPoint x="470" y="580" as="sourcePoint" />
            <mxPoint x="480" y="600" as="targetPoint" />
            <Array as="points">
              <mxPoint x="402" y="580" />
            </Array>
          </mxGeometry>
        </mxCell>
        <mxCell id="ev84bSYayLl21wjOV6-V-37" value="" style="group" vertex="1" connectable="0" parent="1">
          <mxGeometry x="470" y="580" width="20" as="geometry" />
        </mxCell>
        <mxCell id="ev84bSYayLl21wjOV6-V-38" value="" style="edgeStyle=isometricEdgeStyle;endArrow=none;html=1;rounded=0;elbow=horizontal;" edge="1" parent="ev84bSYayLl21wjOV6-V-37">
          <mxGeometry width="50" height="100" relative="1" as="geometry">
            <mxPoint x="6.666666666666666" as="sourcePoint" />
            <mxPoint x="13.333333333333332" as="targetPoint" />
          </mxGeometry>
        </mxCell>
        <mxCell id="ev84bSYayLl21wjOV6-V-39" value="" style="edgeStyle=isometricEdgeStyle;endArrow=none;html=1;rounded=0;elbow=horizontal;" edge="1" parent="ev84bSYayLl21wjOV6-V-37">
          <mxGeometry width="50" height="100" relative="1" as="geometry">
            <mxPoint x="13.333333333333332" as="sourcePoint" />
            <mxPoint x="20" as="targetPoint" />
          </mxGeometry>
        </mxCell>
        <mxCell id="ev84bSYayLl21wjOV6-V-40" value="" style="edgeStyle=isometricEdgeStyle;endArrow=none;html=1;rounded=0;elbow=horizontal;" edge="1" parent="ev84bSYayLl21wjOV6-V-37">
          <mxGeometry width="50" height="100" relative="1" as="geometry">
            <mxPoint as="sourcePoint" />
            <mxPoint x="6.666666666666666" as="targetPoint" />
          </mxGeometry>
        </mxCell>
        <mxCell id="ev84bSYayLl21wjOV6-V-41" value="" style="endArrow=none;html=1;rounded=0;" edge="1" parent="1">
          <mxGeometry width="50" height="50" relative="1" as="geometry">
            <mxPoint x="550" y="580" as="sourcePoint" />
            <mxPoint x="490" y="580" as="targetPoint" />
          </mxGeometry>
        </mxCell>
        <mxCell id="ev84bSYayLl21wjOV6-V-42" value="" style="triangle;whiteSpace=wrap;html=1;" vertex="1" parent="1">
          <mxGeometry x="550" y="570" width="20" height="20" as="geometry" />
        </mxCell>
        <mxCell id="ev84bSYayLl21wjOV6-V-43" value="" style="endArrow=none;html=1;rounded=0;edgeStyle=orthogonalEdgeStyle;" edge="1" parent="1">
          <mxGeometry width="50" height="50" relative="1" as="geometry">
            <mxPoint x="570" y="595" as="sourcePoint" />
            <mxPoint x="570" y="565" as="targetPoint" />
          </mxGeometry>
        </mxCell>
        <mxCell id="ev84bSYayLl21wjOV6-V-44" value="" style="endArrow=none;html=1;rounded=0;exitX=1;exitY=0.5;exitDx=0;exitDy=0;" edge="1" parent="1" source="ev84bSYayLl21wjOV6-V-42">
          <mxGeometry width="50" height="50" relative="1" as="geometry">
            <mxPoint x="430" y="650" as="sourcePoint" />
            <mxPoint x="620" y="430" as="targetPoint" />
            <Array as="points">
              <mxPoint x="620" y="580" />
            </Array>
          </mxGeometry>
        </mxCell>
        <mxCell id="ev84bSYayLl21wjOV6-V-46" value="LED" style="text;html=1;align=center;verticalAlign=middle;resizable=0;points=[];autosize=1;fillColor=none;" vertex="1" parent="1">
          <mxGeometry x="535" y="590" width="50" height="30" as="geometry" />
        </mxCell>
        <mxCell id="ev84bSYayLl21wjOV6-V-47" value="&lt;font style=&quot;font-size: 7px;&quot;&gt;2K&lt;/font&gt;&lt;font style=&quot;font-size: 7px;&quot;&gt;Ω&lt;/font&gt;" style="text;html=1;align=center;verticalAlign=middle;resizable=0;points=[];autosize=1;fillColor=none;" vertex="1" parent="1">
          <mxGeometry x="465" y="190" width="40" height="30" as="geometry" />
        </mxCell>
        <mxCell id="ev84bSYayLl21wjOV6-V-48" value="220Ω" style="text;html=1;align=center;verticalAlign=middle;resizable=0;points=[];autosize=1;fillColor=none;" vertex="1" parent="1">
          <mxGeometry x="535" y="535" width="50" height="30" as="geometry" />
        </mxCell>
        <mxCell id="ev84bSYayLl21wjOV6-V-49" value="&lt;font style=&quot;font-size: 7px;&quot;&gt;1K&lt;/font&gt;&lt;font style=&quot;font-size: 7px;&quot;&gt;Ω&lt;/font&gt;" style="text;html=1;align=center;verticalAlign=middle;resizable=0;points=[];autosize=1;fillColor=none;" vertex="1" parent="1">
          <mxGeometry x="425" y="190" width="40" height="30" as="geometry" />
        </mxCell>
      </root>
    </mxGraphModel>
  </diagram>
</mxfile>
